<?xml version="1.0" encoding="UTF-8" standalone="no"?>
<!DOCTYPE svg PUBLIC "-//W3C//DTD SVG 1.1//EN" "http://www.w3.org/Graphics/SVG/1.1/DTD/svg11.dtd">
<svg version="1.1" xmlns="http://www.w3.org/2000/svg" xmlns:xlink="http://www.w3.org/1999/xlink" preserveAspectRatio="xMidYMid meet" viewBox="0 0 640 640" width="640" height="640"><defs><path d="M358.17 299.12C361.99 292.45 357.17 284.14 349.48 284.14C343.58 284.14 343.16 284.14 337.26 284.14C337.26 284.14 302.73 284.14 302.73 284.14C296.84 284.14 296.42 284.14 290.52 284.14C282.83 284.14 278.01 292.45 281.83 299.12C284.79 304.3 285.1 304.84 288.06 310.02C288.06 310.02 305.2 340 305.2 340C308.16 345.17 308.47 345.72 311.43 350.89C315.22 357.52 324.78 357.52 328.57 350.89C331.53 345.72 331.84 345.17 334.8 340C334.8 340 351.94 310.02 351.94 310.02C354.9 304.84 355.21 304.3 358.17 299.12Z" id="aReIiXYbx"></path></defs><g><g><g><g><filter id="shadow12239425" x="268.49" y="272.14" width="107.02" height="99.73" filterUnits="userSpaceOnUse" primitiveUnits="userSpaceOnUse"><feFlood></feFlood><feComposite in2="SourceAlpha" operator="in"></feComposite><feGaussianBlur stdDeviation="1"></feGaussianBlur><feOffset dx="4" dy="4" result="afterOffset"></feOffset><feFlood flood-color="#000000" flood-opacity="0.5"></feFlood><feComposite in2="afterOffset" operator="in"></feComposite><feMorphology operator="dilate" radius="1"></feMorphology><feComposite in2="SourceAlpha" operator="out"></feComposite></filter><path d="M358.17 299.12C361.99 292.45 357.17 284.14 349.48 284.14C343.58 284.14 343.16 284.14 337.26 284.14C337.26 284.14 302.73 284.14 302.73 284.14C296.84 284.14 296.42 284.14 290.52 284.14C282.83 284.14 278.01 292.45 281.83 299.12C284.79 304.3 285.1 304.84 288.06 310.02C288.06 310.02 305.2 340 305.2 340C308.16 345.17 308.47 345.72 311.43 350.89C315.22 357.52 324.78 357.52 328.57 350.89C331.53 345.72 331.84 345.17 334.8 340C334.8 340 351.94 310.02 351.94 310.02C354.9 304.84 355.21 304.3 358.17 299.12Z" id="a99hXOL74" fill="white" fill-opacity="1" filter="url(#shadow12239425)"></path></g><use xlink:href="#aReIiXYbx" opacity="1" fill="#5f5e5e" fill-opacity="1"></use></g></g></g></svg>