<?xml version="1.0" encoding="UTF-8" standalone="no"?>
<!DOCTYPE svg PUBLIC "-//W3C//DTD SVG 1.1//EN" "http://www.w3.org/Graphics/SVG/1.1/DTD/svg11.dtd">
<svg version="1.1" xmlns="http://www.w3.org/2000/svg" xmlns:xlink="http://www.w3.org/1999/xlink" preserveAspectRatio="xMidYMid meet" viewBox="0 0 640 640" width="640" height="640"><defs><path d="M358.17 340.88C361.99 347.55 357.17 355.86 349.48 355.86C343.58 355.86 343.16 355.86 337.26 355.86C337.26 355.86 302.73 355.86 302.73 355.86C296.84 355.86 296.42 355.86 290.52 355.86C282.83 355.86 278.01 347.55 281.83 340.88C284.79 335.7 285.1 335.16 288.06 329.98C288.06 329.98 305.2 300 305.2 300C308.16 294.83 308.47 294.28 311.43 289.11C315.22 282.48 324.78 282.48 328.57 289.11C331.53 294.28 331.84 294.83 334.8 300C334.8 300 351.94 329.98 351.94 329.98C354.9 335.16 355.21 335.7 358.17 340.88Z" id="dAOpMPNtj"></path></defs><g><g><g><g><filter id="shadow9094400" x="268.49" y="272.14" width="107.02" height="99.73" filterUnits="userSpaceOnUse" primitiveUnits="userSpaceOnUse"><feFlood></feFlood><feComposite in2="SourceAlpha" operator="in"></feComposite><feGaussianBlur stdDeviation="1"></feGaussianBlur><feOffset dx="4" dy="4" result="afterOffset"></feOffset><feFlood flood-color="#000000" flood-opacity="0.5"></feFlood><feComposite in2="afterOffset" operator="in"></feComposite><feMorphology operator="dilate" radius="1"></feMorphology><feComposite in2="SourceAlpha" operator="out"></feComposite></filter><path d="M358.17 340.88C361.99 347.55 357.17 355.86 349.48 355.86C343.58 355.86 343.16 355.86 337.26 355.86C337.26 355.86 302.73 355.86 302.73 355.86C296.84 355.86 296.42 355.86 290.52 355.86C282.83 355.86 278.01 347.55 281.83 340.88C284.79 335.7 285.1 335.16 288.06 329.98C288.06 329.98 305.2 300 305.2 300C308.16 294.83 308.47 294.28 311.43 289.11C315.22 282.48 324.78 282.48 328.57 289.11C331.53 294.28 331.84 294.83 334.8 300C334.8 300 351.94 329.98 351.94 329.98C354.9 335.16 355.21 335.7 358.17 340.88Z" id="e1HkdRLKzg" fill="white" fill-opacity="1" filter="url(#shadow9094400)"></path></g><use xlink:href="#dAOpMPNtj" opacity="1" fill="#5f5e5e" fill-opacity="1"></use></g></g></g></svg>